<!-- This is an SVG placeholder that you can save as placeholder-product.jpg or use directly as an SVG -->
<svg width="400" height="400" viewBox="0 0 400 400" fill="none" xmlns="http://www.w3.org/2000/svg">
  <rect width="400" height="400" fill="#F3F4F6"/>
  <rect x="150" y="150" width="100" height="100" rx="8" fill="#E5E7EB"/>
  <path d="M175 175H185V185H175V175Z" fill="#9CA3AF"/>
  <path d="M190 175H200V185H190V175Z" fill="#9CA3AF"/>
  <path d="M205 175H215V185H205V175Z" fill="#9CA3AF"/>
  <path d="M175 190H185V200H175V190Z" fill="#9CA3AF"/>
  <path d="M190 190H200V200H190V190Z" fill="#9CA3AF"/>
  <path d="M205 190H215V200H205V190Z" fill="#9CA3AF"/>
  <path d="M175 205H185V215H175V205Z" fill="#9CA3AF"/>
  <path d="M190 205H200V215H190V205Z" fill="#9CA3AF"/>
  <path d="M205 205H215V215H205V205Z" fill="#9CA3AF"/>
  <text x="200" y="280" text-anchor="middle" fill="#9CA3AF" font-family="Arial, sans-serif" font-size="16">No Image Available</text>
  <text x="200" y="300" text-anchor="middle" fill="#D1D5DB" font-family="Arial, sans-serif" font-size="12">Graphics2Prints</text>
</svg>
